<svg width="1000" height="180" xmlns="http://www.w3.org/2000/svg">
 <style type="text/css">.st0{display:none;}
	.st1{display:inline;stroke:#FFFFFF;stroke-miterlimit:10;}
	.st2{display:inline;}
	.st3{fill:#1E2225;}
	.st4{fill:none;}
	.st5{display:none;enable-background:new    ;}
	.st6{display:inline;fill:#FFFFFF;}
	.st7{display:none;fill:none;}
	.st8{display:inline;fill:#1E2225;}
	.st9{fill:#FFFFFF;}
	.st10{enable-background:new    ;}
	.st11{fill:#151515;}
	.st12{fill:#F8F9FA;}
	.st13{fill:#1A1A1A;}</style>

 <g>
  <title>background</title>
  <rect x="-1" y="-1" width="1002" height="182" id="canvas_background" fill="none"/>
 </g>
 <g>
  <title>Layer 1</title>
  <g id="Capa_1" class="st0">
   <g id="svg_1">
    <rect x="-163" y="-48" class="st1" width="1085" height="271" id="svg_2"/>
   </g>
   <g id="svg_3">
    <g id="Capa_3" class="st2">
     <rect x="-113" y="-3" class="st3" width="1000" height="180" id="svg_4"/>
    </g>
    <g class="st2" id="svg_5">
     <rect x="96.2" y="48.4" class="st4" width="56.4" height="78.5" id="svg_6"/>
     <g class="st5" id="svg_7">
      <path class="st6" d="m-7.1,125.8l0,-77.4l20.2,0c2.9,0 5.5,0.1 7.7,0.4s4.5,0.9 6.7,1.8c2.2,0.9 4.1,2 5.5,3.5c1.4,1.4 2.6,3.4 3.5,5.9c0.8,2.3 1.2,5 1.2,8c0,0.2 0,0.4 0,0.7c-0.1,9 -3.9,14.2 -11.3,15.5c4.4,0.6 7.8,2.5 10.2,5.6s3.5,7.5 3.6,13c0,0.2 0,0.4 0,0.5c0,7.6 -2,13.2 -5.9,16.8c-4,3.7 -9.9,5.6 -17.5,5.6l-23.9,0l0,0.1zm17.1,-46.5l3.3,0c3.7,0 6.2,-0.8 7.5,-2.5c1.3,-1.6 2,-4.3 2,-7.8c0,-6.1 -3.3,-9.1 -10,-9.1l-2.8,0l0,19.4zm0,34.5l3.6,0c3.7,0 6.3,-0.9 7.8,-2.7s2.2,-4.7 2.2,-8.5c0,-4.4 -0.8,-7.4 -2.3,-9.2s-4.2,-2.7 -8,-2.7l-3.3,0l0,23.1z" id="svg_8"/>
     </g>
     <rect x="127.2" y="48.4" class="st7" width="705.8" height="78.5" id="svg_9"/>
     <g class="st5" id="svg_10">
      <path class="st8" d="m140.1,125.8l0,-64.8l-11.9,0l0,-12.6l40.8,0l0,12.6l-11.8,0l0,64.7l-17.1,0l0,0.1z" id="svg_11"/>
      <path class="st8" d="m174.8,125.8l0,-77.4l15.6,0l0,27.1c3.9,-3.9 8.4,-5.9 13.5,-5.9c3.3,0 5.8,1.2 7.5,3.6s2.6,5.5 2.6,9.2l0,43.4l-15.6,0l0,-41c0,-1.4 -0.2,-2.4 -0.7,-3.1c-0.4,-0.7 -1.2,-1 -2.4,-1c-1.4,0 -3,0.7 -4.9,2l0,43.1l-15.6,0l0,0z" id="svg_12"/>
      <path class="st8" d="m241.5,126.8c-6.1,0 -10.8,-1.6 -14.1,-4.9c-3.3,-3.3 -5,-7.9 -5,-13.8l0,-19.9c0,-5.9 1.7,-10.5 5,-13.8s8.1,-4.9 14.1,-4.9c6.1,0 10.7,1.6 13.8,4.7c3.1,3.2 4.6,7.8 4.6,13.9l0,10.9l-22.1,0l0,9.7c0,2.2 0.3,3.9 0.8,5.1c0.6,1.1 1.5,1.7 2.8,1.7c2.6,0 3.9,-1.8 3.9,-5.4l0,-3.7l14.5,0l0,3.2c0,5.5 -1.6,9.7 -4.8,12.6c-3.2,3.1 -7.7,4.6 -13.5,4.6zm-3.7,-35l7.6,0l0,-5.5c0,-2.1 -0.3,-3.5 -1,-4.4s-1.7,-1.3 -2.9,-1.3c-1.2,0 -2.1,0.5 -2.7,1.5s-0.9,2.7 -0.9,5.1l0,4.6c0,0 -0.1,0 -0.1,0z" id="svg_13"/>
      <path class="st8" d="m268.3,125.8l0,-55.3l15.3,0l0,4.5c3.7,-3.7 8.1,-5.5 13.2,-5.5c2.2,0 4.1,0.6 5.7,1.7s2.9,2.7 3.7,4.9c3.9,-4.4 8.6,-6.5 14.1,-6.5c3.2,0 5.8,1.2 7.7,3.5c1.9,2.4 2.9,5.6 2.9,9.8l0,42.9l-15.3,0l0,-41.4c0,-1.5 -0.3,-2.6 -0.8,-3.3c-0.5,-0.7 -1.4,-1 -2.5,-0.9c-1.7,0.1 -3.4,0.7 -5.1,2l0,0.7l0,42.9l-15.2,0l0,-41.4c0,-1.5 -0.3,-2.6 -0.8,-3.3c-0.5,-0.7 -1.4,-1 -2.5,-1c-1.6,0.1 -3.3,0.8 -5.2,2.1l0,43.5l-15.2,0l0,0.1z" id="svg_14"/>
      <path class="st8" d="m358.3,126.8c-6.1,0 -10.8,-1.6 -14.1,-4.9c-3.3,-3.3 -5,-7.9 -5,-13.8l0,-19.9c0,-5.9 1.7,-10.5 5,-13.8s8.1,-4.9 14.1,-4.9c6.1,0 10.7,1.6 13.8,4.7c3.1,3.2 4.6,7.8 4.6,13.9l0,10.9l-22.1,0l0,9.7c0,2.2 0.3,3.9 0.8,5.1c0.6,1.1 1.5,1.7 2.8,1.7c2.6,0 3.9,-1.8 3.9,-5.4l0,-3.7l14.5,0l0,3.2c0,5.5 -1.6,9.7 -4.8,12.6c-3.1,3.1 -7.7,4.6 -13.5,4.6zm-3.7,-35l7.6,0l0,-5.5c0,-2.1 -0.3,-3.5 -1,-4.4s-1.7,-1.3 -2.9,-1.3c-1.2,0 -2.1,0.5 -2.7,1.5s-0.9,2.7 -0.9,5.1l0,4.6c0,0 -0.1,0 -0.1,0z" id="svg_15"/>
      <path class="st8" d="m401.4,126.8c-4.7,0 -8.6,-1.1 -11.7,-3.3s-5.6,-5.7 -7.5,-10.6l10.8,-4.7c1.1,2.6 2.3,4.6 3.7,6.1c1.3,1.3 2.6,2 4,2c0.2,0 0.3,0 0.5,0c1,-0.1 1.8,-0.4 2.4,-1.1c0.7,-0.7 1,-1.6 0.9,-2.6c0,-0.5 -0.2,-1.1 -0.6,-1.7c-0.4,-0.6 -1,-1.4 -2,-2.3s-1.7,-1.6 -2.1,-1.9c-0.4,-0.3 -1.3,-1.1 -2.7,-2.3l-4.3,-3.7c-6.3,-5.3 -9.4,-10.5 -9.4,-15.5c0,-3 0.8,-5.7 2.4,-8.1s3.6,-4.2 6.2,-5.4s5.4,-1.9 8.4,-1.9c4.5,0 8.3,1.2 11.3,3.7s5.2,6 6.4,10.5l-10.1,4.7c-0.6,-2.1 -1.5,-3.9 -2.7,-5.5s-2.5,-2.4 -4,-2.5c-0.1,0 -0.1,0 -0.1,0c-1.1,0 -2,0.3 -2.6,0.9c-0.7,0.6 -1,1.4 -1.1,2.3c-0.1,1.5 2.1,4.1 6.6,7.9c0.4,0.3 0.7,0.6 0.8,0.7l4.2,3.7c1.6,1.4 2.8,2.5 3.6,3.3s1.8,1.9 2.9,3.3c1.2,1.4 2,2.8 2.5,4.3s0.8,3 0.8,4.7c0,3.1 -0.8,5.9 -2.5,8.2c-1.7,2.3 -3.8,4.1 -6.5,5.2c-2.5,1 -5.4,1.6 -8.5,1.6z" id="svg_16"/>
      <path class="st8" d="m450.9,125.8l0,-77.4l20.2,0c2.9,0 5.5,0.1 7.7,0.4s4.5,0.9 6.7,1.8s4.1,2 5.5,3.5c1.4,1.4 2.6,3.4 3.5,5.9c0.8,2.3 1.2,5 1.2,8c0,0.2 0,0.4 0,0.7c-0.1,9 -3.9,14.2 -11.3,15.5c4.4,0.6 7.8,2.5 10.2,5.6s3.5,7.5 3.6,13c0,0.2 0,0.4 0,0.5c0,7.6 -2,13.2 -5.9,16.8c-4,3.7 -9.9,5.6 -17.5,5.6l-23.9,0l0,0.1zm17.1,-46.5l3.3,0c3.7,0 6.2,-0.8 7.5,-2.5c1.3,-1.6 2,-4.3 2,-7.8c0,-6.1 -3.3,-9.1 -10,-9.1l-2.8,0l0,19.4zm0,34.5l3.6,0c3.7,0 6.3,-0.9 7.8,-2.7s2.2,-4.7 2.2,-8.5c0,-4.4 -0.8,-7.4 -2.3,-9.2s-4.2,-2.7 -8,-2.7l-3.3,0l0,23.1z" id="svg_17"/>
      <path class="st8" d="m538.6,122.1c-3.4,3.1 -8.2,4.7 -14.2,4.7s-10.8,-1.6 -14.1,-4.7s-5.1,-7.6 -5.1,-13.5l0,-20.9c0,-5.9 1.7,-10.4 5.1,-13.5s8.1,-4.6 14.1,-4.6s10.8,1.6 14.2,4.7s5.2,7.6 5.2,13.5l0,20.9c0,5.8 -1.7,10.3 -5.2,13.4zm-14.2,-5.8c1.5,0 2.5,-0.6 3.1,-1.7s0.9,-2.8 0.9,-5l0,-23c0,-2.2 -0.3,-3.9 -0.9,-5c-0.6,-1.1 -1.6,-1.7 -3.1,-1.7c-1.4,0 -2.4,0.6 -3,1.7s-0.9,2.8 -0.9,5l0,23c0,2.1 0.3,3.8 0.9,4.9c0.6,1.2 1.6,1.8 3,1.8z" id="svg_18"/>
      <path class="st8" d="m584.8,122.1c-3.4,3.1 -8.2,4.7 -14.2,4.7s-10.8,-1.6 -14.1,-4.7c-3.4,-3.1 -5.1,-7.6 -5.1,-13.5l0,-20.9c0,-5.9 1.7,-10.4 5.1,-13.5c3.4,-3.1 8.1,-4.6 14.1,-4.6s10.8,1.6 14.2,4.7s5.2,7.6 5.2,13.5l0,20.9c0,5.8 -1.8,10.3 -5.2,13.4zm-14.2,-5.8c1.5,0 2.5,-0.6 3.1,-1.7s0.9,-2.8 0.9,-5l0,-23c0,-2.2 -0.3,-3.9 -0.9,-5c-0.6,-1.1 -1.6,-1.7 -3.1,-1.7c-1.4,0 -2.4,0.6 -3,1.7s-0.9,2.8 -0.9,5l0,23c0,2.1 0.3,3.8 0.9,4.9c0.5,1.2 1.6,1.8 3,1.8z" id="svg_19"/>
      <path class="st8" d="m614.3,126.4c-1.7,-0.1 -3.3,-0.3 -4.6,-0.7c-1.4,-0.4 -2.6,-1 -3.5,-1.6c-1,-0.7 -1.8,-1.5 -2.5,-2.5s-1.3,-2 -1.7,-3.1s-0.8,-2.3 -1,-3.7s-0.4,-2.7 -0.5,-4s-0.1,-2.7 -0.1,-4.4l0,-25.7l-5.3,0l0,-10.2l5.3,0l0,-16.7l15.7,0l0,16.8l7.9,0l0,10.2l-7.9,0l0,28.6c0,2.9 1.7,4.4 5,4.5c0.4,0 0.9,0 1.4,0s0.9,-0.1 1.3,-0.1c0.3,0 0.7,-0.1 1,-0.2s0.5,-0.1 0.5,-0.1l0,12.3c-3.3,0.6 -6.4,0.8 -9.2,0.8c-0.8,-0.1 -1.3,-0.1 -1.8,-0.2z" id="svg_20"/>
      <path class="st8" d="m648.6,126.8c-4.7,0 -8.6,-1.1 -11.7,-3.3s-5.6,-5.7 -7.5,-10.6l10.8,-4.7c1.1,2.6 2.3,4.6 3.7,6.1c1.3,1.3 2.6,2 4,2c0.2,0 0.3,0 0.5,0c1,-0.1 1.8,-0.4 2.4,-1.1s1,-1.6 0.9,-2.6c0,-0.5 -0.2,-1.1 -0.6,-1.7c-0.4,-0.6 -1,-1.4 -2,-2.3s-1.7,-1.6 -2.1,-1.9c-0.4,-0.3 -1.3,-1.1 -2.7,-2.3l-4.3,-3.7c-6.3,-5.3 -9.4,-10.5 -9.4,-15.5c0,-3 0.8,-5.7 2.4,-8.1c1.6,-2.4 3.6,-4.2 6.2,-5.4s5.4,-1.9 8.4,-1.9c4.5,0 8.3,1.2 11.3,3.7s5.2,6 6.4,10.5l-10.1,4.7c-0.6,-2.1 -1.5,-3.9 -2.7,-5.5s-2.5,-2.4 -4,-2.5c-0.1,0 -0.1,0 -0.1,0c-1.1,0 -2,0.3 -2.6,0.9c-0.7,0.6 -1,1.4 -1.1,2.3c-0.1,1.5 2.1,4.1 6.6,7.9c0.4,0.3 0.7,0.6 0.8,0.7l4.2,3.7c1.6,1.4 2.8,2.5 3.6,3.3s1.8,1.9 2.9,3.3c1.2,1.4 2,2.8 2.5,4.3s0.8,3 0.8,4.7c0,3.1 -0.8,5.9 -2.5,8.2c-1.7,2.3 -3.8,4.1 -6.5,5.2c-2.5,1 -5.4,1.6 -8.5,1.6z" id="svg_21"/>
      <path class="st8" d="m688.4,126.4c-1.7,-0.1 -3.3,-0.3 -4.6,-0.7c-1.4,-0.4 -2.6,-1 -3.5,-1.6c-1,-0.7 -1.8,-1.5 -2.5,-2.5s-1.3,-2 -1.7,-3.1s-0.8,-2.3 -1,-3.7s-0.4,-2.7 -0.5,-4s-0.1,-2.7 -0.1,-4.4l0,-25.7l-5.3,0l0,-10.2l5.3,0l0,-16.7l15.7,0l0,16.8l7.9,0l0,10.2l-7.9,0l0,28.6c0,2.9 1.7,4.4 5,4.5c0.4,0 0.9,0 1.4,0s0.9,-0.1 1.3,-0.1c0.3,0 0.7,-0.1 1,-0.2s0.5,-0.1 0.5,-0.1l0,12.3c-3.3,0.6 -6.4,0.8 -9.2,0.8c-0.7,-0.1 -1.2,-0.1 -1.8,-0.2z" id="svg_22"/>
      <path class="st8" d="m706.7,125.8l0,-55.3l15.6,0l0,9.2c3.4,-6.6 7.1,-9.9 11.1,-9.9c0.6,0 1.3,0.1 2.2,0.4l0,13.8c-0.9,-0.2 -1.7,-0.3 -2.6,-0.3c-4.3,0.2 -7.8,2.4 -10.7,6.7l0,35.4l-15.6,0l0,0z" id="svg_23"/>
      <path class="st8" d="m753.1,126.8c-3.9,-0.1 -7,-1.5 -9.4,-4.2c-2.3,-2.7 -3.5,-5.8 -3.5,-9.3c0,-1.8 0.2,-3.5 0.7,-5.1s1,-2.9 1.6,-4.1s1.5,-2.3 2.7,-3.4s2.2,-2 3.1,-2.6c0.9,-0.7 2.2,-1.4 3.7,-2.1c1.5,-0.8 2.8,-1.3 3.7,-1.7c0.9,-0.4 2.2,-0.9 3.8,-1.5s2.7,-1 3.4,-1.3l0,-5.5c0,-1.6 -0.2,-2.8 -0.7,-3.6s-1.3,-1.3 -2.6,-1.3c-2.1,0 -3.2,1.5 -3.4,4.4l-0.4,4.1l-14.4,-0.6c0,-0.1 0,-0.4 0,-0.9s0,-0.8 0,-0.9c0.5,-6 2.3,-10.5 5.6,-13.3c3.3,-2.9 8,-4.3 14.1,-4.3c5.4,0 9.6,1.5 12.4,4.5c2.8,3 4.3,7 4.3,12.1l0,25.7c0,3.5 0.3,8.2 1,13.9l-13.8,0c-0.8,-4.5 -1.2,-7.1 -1.3,-7.8c-0.7,2.5 -2,4.6 -3.8,6.3c-1.8,1.6 -4.1,2.5 -6.8,2.5zm5.6,-10.8c0.7,0 1.5,-0.3 2.3,-0.8s1.4,-1.1 1.9,-1.8l0,-15.1c-2.5,1.2 -4.5,3 -6.1,5.3s-2.4,4.5 -2.4,6.6c0,1.8 0.4,3.2 1.2,4.3c0.8,1 1.9,1.5 3.1,1.5z" id="svg_24"/>
      <path class="st8" d="m787.2,144l0,-73.5l15.6,0l0,4.1c3.8,-3.3 7.6,-5 11.5,-5c0.2,0 0.4,0 0.5,0c4,0.1 6.9,1.7 8.9,4.8c1.9,3 2.9,6.9 2.9,11.6l0,23.6c0,5.3 -1,9.5 -3.2,12.6c-2.1,3.1 -5.1,4.7 -9,4.7s-7.7,-1.7 -11.7,-5.1l0,22.2l-15.5,0zm19.8,-27.4c0,0 0.1,0 0,0c1.4,0 2.4,-0.6 3,-1.7c0.6,-1.2 0.9,-2.7 1,-4.5l0,-25.7c0,-1.7 -0.3,-3.1 -1,-4.2c-0.6,-1 -1.5,-1.5 -2.7,-1.5c-0.1,0 -0.3,0 -0.4,0c-1.2,0.1 -2.5,0.7 -4.1,1.8l0,34.3c1.5,1 2.9,1.5 4.2,1.5z" id="svg_25"/>
     </g>
    </g>
    <g class="st2" id="svg_26">
     <g id="svg_27">
      <circle class="st9" cx="15.5" cy="87" r="77.5" id="svg_28"/>
     </g>
     <rect x="-11.8" y="47.9" class="st4" width="56.4" height="78.5" id="svg_29"/>
     <g class="st10" id="svg_30">
      <path class="st11" d="m-6.1,125.3l0,-77.4l20.2,0c2.9,0 5.5,0.1 7.7,0.4s4.5,0.9 6.7,1.8c2.2,0.9 4.1,2 5.5,3.5c1.4,1.4 2.6,3.4 3.5,5.9c0.8,2.3 1.2,5 1.2,8c0,0.2 0,0.4 0,0.7c-0.1,9 -3.9,14.2 -11.3,15.5c4.4,0.6 7.8,2.5 10.2,5.6s3.5,7.5 3.6,13c0,0.2 0,0.4 0,0.5c0,7.6 -2,13.2 -5.9,16.8c-4,3.7 -9.9,5.6 -17.5,5.6l-23.9,0l0,0.1zm17.1,-46.5l3.3,0c3.7,0 6.2,-0.8 7.5,-2.5c1.3,-1.6 2,-4.3 2,-7.8c0,-6.1 -3.3,-9.1 -10,-9.1l-2.8,0l0,19.4zm0,34.5l3.6,0c3.7,0 6.3,-0.9 7.8,-2.7s2.2,-4.7 2.2,-8.5c0,-4.4 -0.8,-7.4 -2.3,-9.2s-4.2,-2.7 -8,-2.7l-3.3,0l0,23.1z" id="svg_31"/>
     </g>
     <rect x="128.2" y="47.9" class="st4" width="705.8" height="78.5" id="svg_32"/>
     <g class="st10" id="svg_33">
      <path class="st9" d="m141.1,125.3l0,-64.8l-11.9,0l0,-12.6l40.8,0l0,12.6l-11.8,0l0,64.7l-17.1,0l0,0.1z" id="svg_34"/>
      <path class="st9" d="m175.8,125.3l0,-77.4l15.6,0l0,27.1c3.9,-3.9 8.4,-5.9 13.5,-5.9c3.3,0 5.8,1.2 7.5,3.6s2.6,5.5 2.6,9.2l0,43.4l-15.6,0l0,-41c0,-1.4 -0.2,-2.4 -0.7,-3.1c-0.4,-0.7 -1.2,-1 -2.4,-1c-1.4,0 -3,0.7 -4.9,2l0,43.1l-15.6,0l0,0z" id="svg_35"/>
      <path class="st9" d="m242.5,126.3c-6.1,0 -10.8,-1.6 -14.1,-4.9c-3.3,-3.3 -5,-7.9 -5,-13.8l0,-19.9c0,-5.9 1.7,-10.5 5,-13.8s8.1,-4.9 14.1,-4.9c6.1,0 10.7,1.6 13.8,4.7c3.1,3.2 4.6,7.8 4.6,13.9l0,10.9l-22.1,0l0,9.7c0,2.2 0.3,3.9 0.8,5.1c0.6,1.1 1.5,1.7 2.8,1.7c2.6,0 3.9,-1.8 3.9,-5.4l0,-3.6l14.5,0l0,3.2c0,5.5 -1.6,9.7 -4.8,12.6c-3.2,3 -7.7,4.5 -13.5,4.5zm-3.7,-35l7.6,0l0,-5.5c0,-2.1 -0.3,-3.5 -1,-4.4s-1.7,-1.3 -2.9,-1.3c-1.2,0 -2.1,0.5 -2.7,1.5s-0.9,2.7 -0.9,5.1l0,4.6c0,0 -0.1,0 -0.1,0z" id="svg_36"/>
      <path class="st9" d="m269.3,125.3l0,-55.3l15.3,0l0,4.5c3.7,-3.7 8.1,-5.5 13.2,-5.5c2.2,0 4.1,0.6 5.7,1.7s2.9,2.7 3.7,4.9c3.9,-4.4 8.6,-6.5 14.1,-6.5c3.2,0 5.8,1.2 7.7,3.5c1.9,2.4 2.9,5.6 2.9,9.8l0,42.9l-15.3,0l0,-41.4c0,-1.5 -0.3,-2.6 -0.8,-3.3c-0.5,-0.7 -1.4,-1 -2.5,-0.9c-1.7,0.1 -3.4,0.7 -5.1,2l0,0.7l0,42.9l-15.2,0l0,-41.4c0,-1.5 -0.3,-2.6 -0.8,-3.3c-0.5,-0.7 -1.4,-1 -2.5,-1c-1.6,0.1 -3.3,0.8 -5.2,2.1l0,43.5l-15.2,0l0,0.1z" id="svg_37"/>
      <path class="st9" d="m359.3,126.3c-6.1,0 -10.8,-1.6 -14.1,-4.9c-3.3,-3.3 -5,-7.9 -5,-13.8l0,-19.9c0,-5.9 1.7,-10.5 5,-13.8s8.1,-4.9 14.1,-4.9c6.1,0 10.7,1.6 13.8,4.7c3.1,3.2 4.6,7.8 4.6,13.9l0,10.9l-22.1,0l0,9.7c0,2.2 0.3,3.9 0.8,5.1c0.6,1.1 1.5,1.7 2.8,1.7c2.6,0 3.9,-1.8 3.9,-5.4l0,-3.6l14.5,0l0,3.2c0,5.5 -1.6,9.7 -4.8,12.6c-3.1,3 -7.7,4.5 -13.5,4.5zm-3.7,-35l7.6,0l0,-5.5c0,-2.1 -0.3,-3.5 -1,-4.4s-1.7,-1.3 -2.9,-1.3c-1.2,0 -2.1,0.5 -2.7,1.5s-0.9,2.7 -0.9,5.1l0,4.6c0,0 -0.1,0 -0.1,0z" id="svg_38"/>
      <path class="st9" d="m402.4,126.3c-4.7,0 -8.6,-1.1 -11.7,-3.3s-5.6,-5.7 -7.5,-10.6l10.8,-4.7c1.1,2.6 2.3,4.6 3.7,6.1c1.3,1.3 2.6,2 4,2c0.2,0 0.3,0 0.5,0c1,-0.1 1.8,-0.4 2.4,-1.1c0.7,-0.7 1,-1.6 0.9,-2.6c0,-0.5 -0.2,-1.1 -0.6,-1.7c-0.4,-0.6 -1,-1.4 -2,-2.3s-1.7,-1.6 -2.1,-1.9c-0.4,-0.3 -1.3,-1.1 -2.7,-2.3l-4.3,-3.7c-6.3,-5.3 -9.4,-10.5 -9.4,-15.5c0,-3 0.8,-5.7 2.4,-8.1s3.6,-4.2 6.2,-5.4s5.4,-1.9 8.4,-1.9c4.5,0 8.3,1.2 11.3,3.7s5.2,6 6.4,10.5l-10,4.5c-0.6,-2.1 -1.5,-3.9 -2.7,-5.5s-2.5,-2.4 -4,-2.5c-0.1,0 -0.1,0 -0.1,0c-1.1,0 -2,0.3 -2.6,0.9c-0.7,0.6 -1,1.4 -1.1,2.3c-0.1,1.5 2.1,4.1 6.6,7.9c0.4,0.3 0.7,0.6 0.8,0.7l4.2,3.7c1.6,1.4 2.8,2.5 3.6,3.3s1.8,1.9 2.9,3.3c1.2,1.4 2,2.8 2.5,4.3s0.8,3 0.8,4.7c0,3.1 -0.8,5.9 -2.5,8.2c-1.7,2.3 -3.8,4.1 -6.5,5.2c-2.6,1.2 -5.5,1.8 -8.6,1.8z" id="svg_39"/>
      <path class="st9" d="m451.9,125.3l0,-77.4l20.2,0c2.9,0 5.5,0.1 7.7,0.4s4.5,0.9 6.7,1.8s4.1,2 5.5,3.5c1.4,1.4 2.6,3.4 3.5,5.9c0.8,2.3 1.2,5 1.2,8c0,0.2 0,0.4 0,0.7c-0.1,9 -3.9,14.2 -11.3,15.5c4.4,0.6 7.8,2.5 10.2,5.6s3.5,7.5 3.6,13c0,0.2 0,0.4 0,0.5c0,7.6 -2,13.2 -5.9,16.8c-4,3.7 -9.9,5.6 -17.5,5.6l-23.9,0l0,0.1zm17.1,-46.5l3.3,0c3.7,0 6.2,-0.8 7.5,-2.5c1.3,-1.6 2,-4.3 2,-7.8c0,-6.1 -3.3,-9.1 -10,-9.1l-2.8,0l0,19.4zm0,34.5l3.6,0c3.7,0 6.3,-0.9 7.8,-2.7s2.2,-4.7 2.2,-8.5c0,-4.4 -0.8,-7.4 -2.3,-9.2s-4.2,-2.7 -8,-2.7l-3.3,0l0,23.1z" id="svg_40"/>
      <path class="st9" d="m539.6,121.6c-3.4,3.1 -8.2,4.7 -14.2,4.7s-10.8,-1.6 -14.1,-4.7s-5.1,-7.6 -5.1,-13.5l0,-20.9c0,-5.9 1.7,-10.4 5.1,-13.5s8.1,-4.6 14.1,-4.6s10.8,1.6 14.2,4.7s5.2,7.6 5.2,13.5l0,20.9c0,5.8 -1.7,10.3 -5.2,13.4zm-14.2,-5.8c1.5,0 2.5,-0.6 3.1,-1.7s0.9,-2.8 0.9,-5l0,-23c0,-2.2 -0.3,-3.9 -0.9,-5c-0.6,-1.1 -1.6,-1.7 -3.1,-1.7c-1.4,0 -2.4,0.6 -3,1.7s-0.9,2.8 -0.9,5l0,23c0,2.1 0.3,3.8 0.9,4.9c0.6,1.2 1.6,1.8 3,1.8z" id="svg_41"/>
      <path class="st9" d="m585.8,121.6c-3.4,3.1 -8.2,4.7 -14.2,4.7s-10.8,-1.6 -14.1,-4.7c-3.4,-3.1 -5.1,-7.6 -5.1,-13.5l0,-20.9c0,-5.9 1.7,-10.4 5.1,-13.5c3.4,-3.1 8.1,-4.6 14.1,-4.6s10.8,1.6 14.2,4.7s5.2,7.6 5.2,13.5l0,20.9c0,5.8 -1.8,10.3 -5.2,13.4zm-14.2,-5.8c1.5,0 2.5,-0.6 3.1,-1.7s0.9,-2.8 0.9,-5l0,-23c0,-2.2 -0.3,-3.9 -0.9,-5c-0.6,-1.1 -1.6,-1.7 -3.1,-1.7c-1.4,0 -2.4,0.6 -3,1.7s-0.9,2.8 -0.9,5l0,23c0,2.1 0.3,3.8 0.9,4.9c0.5,1.2 1.6,1.8 3,1.8z" id="svg_42"/>
      <path class="st9" d="m615.3,125.9c-1.7,-0.1 -3.3,-0.3 -4.6,-0.7c-1.4,-0.4 -2.6,-1 -3.5,-1.6c-1,-0.7 -1.8,-1.5 -2.5,-2.5s-1.3,-2 -1.7,-3.1s-0.8,-2.3 -1,-3.7s-0.4,-2.7 -0.5,-4s-0.1,-2.7 -0.1,-4.4l0,-25.7l-5.3,0l0,-10.2l5.3,0l0,-16.7l15.7,0l0,16.7l7.9,0l0,10.2l-7.9,0l0,28.6c0,2.9 1.7,4.4 5,4.5c0.4,0 0.9,0 1.4,0s0.9,-0.1 1.3,-0.1c0.3,0 0.7,-0.1 1,-0.2s0.5,-0.1 0.5,-0.1l0,12.3c-3.3,0.6 -6.4,0.8 -9.2,0.8c-0.8,0 -1.3,0 -1.8,-0.1z" id="svg_43"/>
      <path class="st9" d="m649.6,126.3c-4.7,0 -8.6,-1.1 -11.7,-3.3s-5.6,-5.7 -7.5,-10.6l10.8,-4.7c1.1,2.6 2.3,4.6 3.7,6.1c1.3,1.3 2.6,2 4,2c0.2,0 0.3,0 0.5,0c1,-0.1 1.8,-0.4 2.4,-1.1s1,-1.6 0.9,-2.6c0,-0.5 -0.2,-1.1 -0.6,-1.7c-0.4,-0.6 -1,-1.4 -2,-2.3s-1.7,-1.6 -2.1,-1.9c-0.4,-0.3 -1.3,-1.1 -2.7,-2.3l-4.3,-3.9c-6.3,-5.3 -9.4,-10.5 -9.4,-15.5c0,-3 0.8,-5.7 2.4,-8.1c1.6,-2.4 3.6,-4.2 6.2,-5.4s5.4,-1.9 8.4,-1.9c4.5,0 8.3,1.2 11.3,3.7s5.2,6 6.4,10.5l-10,4.7c-0.6,-2.1 -1.5,-3.9 -2.7,-5.5s-2.5,-2.4 -4,-2.5c-0.1,0 -0.1,0 -0.1,0c-1.1,0 -2,0.3 -2.6,0.9c-0.7,0.6 -1,1.4 -1.1,2.3c-0.1,1.5 2.1,4.1 6.6,7.9c0.4,0.3 0.7,0.6 0.8,0.7l4.2,3.7c1.6,1.4 2.8,2.5 3.6,3.3s1.8,1.9 2.9,3.3c1.2,1.4 2,2.8 2.5,4.3s0.8,3 0.8,4.7c0,3.1 -0.8,5.9 -2.5,8.2c-1.7,2.3 -3.8,4.1 -6.5,5.2c-2.6,1.2 -5.5,1.8 -8.6,1.8z" id="svg_44"/>
      <path class="st9" d="m689.4,125.9c-1.7,-0.1 -3.3,-0.3 -4.6,-0.7c-1.4,-0.4 -2.6,-1 -3.5,-1.6c-1,-0.7 -1.8,-1.5 -2.5,-2.5s-1.3,-2 -1.7,-3.1s-0.8,-2.3 -1,-3.7s-0.4,-2.7 -0.5,-4s-0.1,-2.7 -0.1,-4.4l0,-25.7l-5.3,0l0,-10.2l5.3,0l0,-16.7l15.7,0l0,16.7l7.9,0l0,10.2l-7.9,0l0,28.6c0,2.9 1.7,4.4 5,4.5c0.4,0 0.9,0 1.4,0s0.9,-0.1 1.3,-0.1c0.3,0 0.7,-0.1 1,-0.2s0.5,-0.1 0.5,-0.1l0,12.3c-3.3,0.6 -6.4,0.8 -9.2,0.8c-0.7,0 -1.2,0 -1.8,-0.1z" id="svg_45"/>
      <path class="st9" d="m707.7,125.3l0,-55.3l15.6,0l0,9.2c3.4,-6.6 7.1,-9.9 11.1,-9.9c0.6,0 1.3,0.1 2.2,0.4l0,13.8c-0.9,-0.2 -1.7,-0.3 -2.6,-0.3c-4.3,0.2 -7.8,2.4 -10.7,6.7l0,35.4l-15.6,0l0,0z" id="svg_46"/>
      <path class="st9" d="m754.1,126.3c-3.9,-0.1 -7,-1.5 -9.4,-4.2c-2.3,-2.7 -3.5,-5.8 -3.5,-9.3c0,-1.8 0.2,-3.5 0.7,-5.1s1,-2.9 1.6,-4.1s1.5,-2.3 2.7,-3.4s2.2,-2 3.1,-2.6c0.9,-0.7 2.2,-1.4 3.7,-2.1c1.5,-0.8 2.8,-1.3 3.7,-1.7c0.9,-0.4 2.2,-0.9 3.8,-1.5s2.7,-1 3.4,-1.3l0,-5.5c0,-1.6 -0.2,-2.8 -0.7,-3.6s-1.3,-1.3 -2.6,-1.3c-2.1,0 -3.2,1.5 -3.4,4.4l-0.4,4.1l-14.6,-0.6c0,-0.1 0,-0.4 0,-0.9s0,-0.8 0,-0.9c0.5,-6 2.3,-10.5 5.6,-13.3c3.3,-2.9 8,-4.3 14.1,-4.3c5.4,0 9.6,1.5 12.4,4.5c2.8,3 4.3,7 4.3,12.1l0,25.7c0,3.5 0.3,8.2 1,13.9l-13.6,0c-0.8,-4.5 -1.2,-7.1 -1.3,-7.8c-0.7,2.5 -2,4.6 -3.8,6.3c-1.8,1.6 -4.1,2.5 -6.8,2.5zm5.6,-10.8c0.7,0 1.5,-0.3 2.3,-0.8s1.4,-1.1 1.9,-1.8l0,-15.1c-2.5,1.2 -4.5,3 -6.1,5.3s-2.4,4.5 -2.4,6.6c0,1.8 0.4,3.2 1.2,4.3c0.8,1 1.9,1.5 3.1,1.5z" id="svg_47"/>
      <path class="st9" d="m788.2,143.5l0,-73.5l15.6,0l0,4.1c3.8,-3.3 7.6,-5 11.5,-5c0.2,0 0.4,0 0.5,0c4,0.1 6.9,1.7 8.9,4.8c1.9,3 2.9,6.9 2.9,11.6l0,23.5c0,5.3 -1,9.5 -3.2,12.6c-2.1,3.1 -5.1,4.7 -9,4.7s-7.7,-1.7 -11.7,-5.1l0,22.4l-15.5,0l0,-0.1zm19.8,-27.4c0,0 0.1,0 0,0c1.4,0 2.4,-0.6 3,-1.7c0.6,-1.2 0.9,-2.7 1,-4.5l0,-25.7c0,-1.7 -0.3,-3.1 -1,-4.2c-0.6,-1 -1.5,-1.5 -2.7,-1.5c-0.1,0 -0.3,0 -0.4,0c-1.2,0.1 -2.5,0.7 -4.1,1.8l0,34.3c1.5,1 2.9,1.5 4.2,1.5z" id="svg_48"/>
     </g>
    </g>
   </g>
   <g id="Capa_3_1_">
    <g class="st2" id="svg_49">
     <rect x="243" y="53" class="st4" width="626" height="108" id="svg_50"/>
     <path class="st12" d="m250.4,123l0,-68l23.5,0l12,49.6l12,-49.6l23.5,0l0,68l-13.8,0l0,-52.6l-1.5,0l-13.3,49.6l-13.8,0l-13.3,-49.6l-1.5,0l0,52.6l-13.8,0z" id="svg_51"/>
     <path class="st12" d="m337.1,78.6c3.5,-4.6 9.4,-6.9 17.7,-6.9c8.3,0 14.2,2.3 17.7,6.9s5.3,11 5.3,19.2c0,17.5 -7.7,26.3 -23,26.3s-23,-8.8 -23,-26.3c0,-8.2 1.8,-14.6 5.3,-19.2zm10.3,30.6c1.4,2.4 3.8,3.6 7.4,3.6c3.5,0 6,-1.2 7.4,-3.6s2,-6.2 2,-11.3c0,-5.1 -0.7,-8.9 -2,-11.2c-1.4,-2.3 -3.8,-3.5 -7.4,-3.5c-3.5,0 -6,1.2 -7.4,3.5s-2,6.1 -2,11.2c0,5.1 0.7,8.9 2,11.3z" id="svg_52"/>
     <path class="st12" d="m411.8,71.8c7,0 12.1,1.9 15.3,5.8c3.2,3.8 4.9,10.7 4.9,20.6s-1.9,16.7 -5.6,20.4c-3.7,3.8 -10.2,5.7 -19.3,5.7c-2.9,0 -8.1,-0.3 -15.7,-1l-3.8,-0.4l0,-69.9l13.4,0l0,21.5c4.3,-1.8 7.9,-2.7 10.8,-2.7zm-4.7,40.4c4.5,0 7.5,-1.1 9,-3.2c1.5,-2.2 2.3,-6 2.3,-11.7c0,-9 -2.8,-13.5 -8.4,-13.5c-2.7,0 -5.2,0.3 -7.6,1l-1.4,0.3l0,26.7c3.1,0.3 5.1,0.4 6.1,0.4z" id="svg_53"/>
     <path class="st12" d="m442,66.6l0,-13.6l13.4,0l0,13.6l-13.4,0zm0,56.4l0,-50l13.4,0l0,50l-13.4,0z" id="svg_54"/>
     <path class="st12" d="m468.4,123l0,-70l13.4,0l0,70l-13.4,0z" id="svg_55"/>
     <path class="st12" d="m508.2,110.3c1.6,1.4 3.8,2 6.8,2c6.2,0 11.7,-0.2 16.6,-0.6l2.8,-0.3l0.2,9.9c-7.7,1.9 -14.6,2.8 -20.8,2.8c-7.5,0 -13,-2 -16.4,-6s-5.1,-10.5 -5.1,-19.5c0,-17.9 7.4,-26.9 22.1,-26.9c14.5,0 21.8,7.5 21.8,22.6l-1,9.3l-29.4,0c0.1,3.2 0.9,5.4 2.4,6.7zm14.8,-16.8c0,-4 -0.6,-6.8 -1.9,-8.4c-1.3,-1.6 -3.5,-2.4 -6.7,-2.4s-5.4,0.8 -6.7,2.5c-1.3,1.6 -2,4.4 -2,8.3l17.3,0z" id="svg_56"/>
     <path class="st12" d="m563.3,123l15.3,-68l26.2,0l15.3,68l-13.8,0l-2.7,-12.3l-23.8,0l-2.7,12.3l-13.8,0zm26,-56.6l-6.9,32.3l18.6,0l-6.9,-32.3c0,0 -4.8,0 -4.8,0z" id="svg_57"/>
     <path class="st12" d="m628,144l0,-71l13.3,0l0,2.7c4.3,-2.6 8.1,-3.9 11.4,-3.9c6.7,0 11.7,2 14.9,6.1c3.2,4 4.8,10.9 4.8,20.5c0,9.7 -1.8,16.4 -5.3,20.1c-3.5,3.8 -9.3,5.7 -17.4,5.7c-2.2,0 -4.6,-0.2 -7.1,-0.6l-1.2,-0.2l0,20.6l-13.4,0zm22.1,-60.2c-2.5,0 -5,0.5 -7.5,1.5l-1.2,0.5l0,26.2c3,0.4 5.4,0.6 7.3,0.6c3.9,0 6.5,-1.1 7.9,-3.4s2.2,-6.1 2.2,-11.6c0,-9.2 -2.9,-13.8 -8.7,-13.8z" id="svg_58"/>
     <path class="st12" d="m682.4,144l0,-71l13.3,0l0,2.7c4.3,-2.6 8.1,-3.9 11.4,-3.9c6.7,0 11.7,2 14.9,6.1c3.2,4 4.8,10.9 4.8,20.5c0,9.7 -1.8,16.4 -5.3,20.1c-3.5,3.8 -9.3,5.7 -17.4,5.7c-2.2,0 -4.6,-0.2 -7.1,-0.6l-1.2,-0.2l0,20.6l-13.4,0zm22.1,-60.2c-2.5,0 -5,0.5 -7.5,1.5l-1.2,0.5l0,26.2c3,0.4 5.4,0.6 7.3,0.6c3.9,0 6.5,-1.1 7.9,-3.4s2.2,-6.1 2.2,-11.6c0,-9.2 -2.9,-13.8 -8.7,-13.8z" id="svg_59"/>
    </g>
    <g class="st2" id="svg_60">
     <circle class="st12" cx="123.5" cy="87.5" r="77.5" id="svg_61"/>
    </g>
    <g class="st2" id="svg_62">
     <rect x="80" y="52.4" class="st4" width="89.6" height="108" id="svg_63"/>
     <path class="st13" d="m87.4,122.4l0,-68l23.5,0l12,49.6l12,-49.6l23.5,0l0,68l-13.8,0l0,-52.6l-1.5,0l-13.3,49.6l-13.8,0l-13.3,-49.6l-1.5,0l0,52.6l-13.8,0z" id="svg_64"/>
    </g>
   </g>
   <g id="Capa_4" class="st2">
    <g id="svg_65">
     <rect x="243" y="53" class="st4" width="626" height="108" id="svg_66"/>
     <path class="st13" d="m250.4,123l0,-68l23.5,0l12,49.6l12,-49.6l23.5,0l0,68l-13.8,0l0,-52.6l-1.5,0l-13.3,49.6l-13.8,0l-13.3,-49.6l-1.5,0l0,52.6l-13.8,0z" id="svg_67"/>
     <path class="st13" d="m337.1,78.6c3.5,-4.6 9.4,-6.9 17.7,-6.9c8.3,0 14.2,2.3 17.7,6.9s5.3,11 5.3,19.2c0,17.5 -7.7,26.3 -23,26.3s-23,-8.8 -23,-26.3c0,-8.2 1.8,-14.6 5.3,-19.2zm10.3,30.6c1.4,2.4 3.8,3.6 7.4,3.6c3.5,0 6,-1.2 7.4,-3.6s2,-6.2 2,-11.3c0,-5.1 -0.7,-8.9 -2,-11.2c-1.4,-2.3 -3.8,-3.5 -7.4,-3.5c-3.5,0 -6,1.2 -7.4,3.5s-2,6.1 -2,11.2c0,5.1 0.7,8.9 2,11.3z" id="svg_68"/>
     <path class="st13" d="m411.8,71.8c7,0 12.1,1.9 15.3,5.8c3.2,3.8 4.9,10.7 4.9,20.6s-1.9,16.7 -5.6,20.4c-3.7,3.8 -10.2,5.7 -19.3,5.7c-2.9,0 -8.1,-0.3 -15.7,-1l-3.8,-0.4l0,-69.9l13.4,0l0,21.5c4.3,-1.8 7.9,-2.7 10.8,-2.7zm-4.7,40.4c4.5,0 7.5,-1.1 9,-3.2c1.5,-2.2 2.3,-6 2.3,-11.7c0,-9 -2.8,-13.5 -8.4,-13.5c-2.7,0 -5.2,0.3 -7.6,1l-1.4,0.3l0,26.7c3.1,0.3 5.1,0.4 6.1,0.4z" id="svg_69"/>
     <path class="st13" d="m442,66.6l0,-13.6l13.4,0l0,13.6l-13.4,0zm0,56.4l0,-50l13.4,0l0,50l-13.4,0z" id="svg_70"/>
     <path class="st13" d="m468.4,123l0,-70l13.4,0l0,70l-13.4,0z" id="svg_71"/>
     <path class="st13" d="m508.2,110.3c1.6,1.4 3.8,2 6.8,2c6.2,0 11.7,-0.2 16.6,-0.6l2.8,-0.3l0.2,9.9c-7.7,1.9 -14.6,2.8 -20.8,2.8c-7.5,0 -13,-2 -16.4,-6s-5.1,-10.5 -5.1,-19.5c0,-17.9 7.4,-26.9 22.1,-26.9c14.5,0 21.8,7.5 21.8,22.6l-1,9.3l-29.4,0c0.1,3.2 0.9,5.4 2.4,6.7zm14.8,-16.8c0,-4 -0.6,-6.8 -1.9,-8.4c-1.3,-1.6 -3.5,-2.4 -6.7,-2.4s-5.4,0.8 -6.7,2.5c-1.3,1.6 -2,4.4 -2,8.3l17.3,0z" id="svg_72"/>
     <path class="st13" d="m563.3,123l15.3,-68l26.2,0l15.3,68l-13.8,0l-2.7,-12.3l-23.8,0l-2.7,12.3l-13.8,0zm26,-56.6l-6.9,32.3l18.6,0l-6.9,-32.3c0,0 -4.8,0 -4.8,0z" id="svg_73"/>
     <path class="st13" d="m628,144l0,-71l13.3,0l0,2.7c4.3,-2.6 8.1,-3.9 11.4,-3.9c6.7,0 11.7,2 14.9,6.1c3.2,4 4.8,10.9 4.8,20.5c0,9.7 -1.8,16.4 -5.3,20.1c-3.5,3.8 -9.3,5.7 -17.4,5.7c-2.2,0 -4.6,-0.2 -7.1,-0.6l-1.2,-0.2l0,20.6l-13.4,0zm22.1,-60.2c-2.5,0 -5,0.5 -7.5,1.5l-1.2,0.5l0,26.2c3,0.4 5.4,0.6 7.3,0.6c3.9,0 6.5,-1.1 7.9,-3.4s2.2,-6.1 2.2,-11.6c0,-9.2 -2.9,-13.8 -8.7,-13.8z" id="svg_74"/>
     <path class="st13" d="m682.4,144l0,-71l13.3,0l0,2.7c4.3,-2.6 8.1,-3.9 11.4,-3.9c6.7,0 11.7,2 14.9,6.1c3.2,4 4.8,10.9 4.8,20.5c0,9.7 -1.8,16.4 -5.3,20.1c-3.5,3.8 -9.3,5.7 -17.4,5.7c-2.2,0 -4.6,-0.2 -7.1,-0.6l-1.2,-0.2l0,20.6l-13.4,0zm22.1,-60.2c-2.5,0 -5,0.5 -7.5,1.5l-1.2,0.5l0,26.2c3,0.4 5.4,0.6 7.3,0.6c3.9,0 6.5,-1.1 7.9,-3.4s2.2,-6.1 2.2,-11.6c0,-9.2 -2.9,-13.8 -8.7,-13.8z" id="svg_75"/>
    </g>
    <g id="svg_76">
     <circle class="st13" cx="123.5" cy="87.5" r="77.5" id="svg_77"/>
    </g>
    <g id="svg_78">
     <rect x="80" y="52.4" class="st4" width="89.6" height="108" id="svg_79"/>
     <path class="st12" d="m87.4,122.4l0,-68l23.5,0l12,49.6l12,-49.6l23.5,0l0,68l-13.8,0l0,-52.6l-1.5,0l-13.3,49.6l-13.8,0l-13.3,-49.6l-1.5,0l0,52.6l-13.8,0z" id="svg_80"/>
    </g>
   </g>
  </g>
  <text fill="#0080c4" stroke-width="0" stroke-opacity="null" x="61.687667" y="84.338194" id="svg_104" font-size="24" font-family="'Trebuchet MS', Gadget, sans-serif" text-anchor="start" xml:space="preserve" transform="matrix(3.5283452218605595,0,0,4.2146326445307505,-212.28621503566603,-229.86616437065348) " stroke="#000" font-weight="bold">HOHAI UNIVERSITY</text>
 </g>
</svg>